<?xml version="1.0" encoding="utf-8"?>
<!-- Generator: Adobe Illustrator 28.0.0, SVG Export Plug-In . SVG Version: 6.00 Build 0)  -->
<svg version="1.1" id="Layer_1" xmlns="http://www.w3.org/2000/svg" xmlns:xlink="http://www.w3.org/1999/xlink" x="0px" y="0px"
	 viewBox="0 0 333.65 54.63" style="enable-background:new 0 0 333.65 54.63;" xml:space="preserve">
<style type="text/css">
	.st0{fill:#FFFFFF;}
</style>
<g>
	<path class="st0" d="M124.2,20.56c-3.82,0-7.44,1.51-10.18,4.26c-2.9,2.9-4.49,6.8-4.48,10.98c0.01,9.13,6.22,15.27,15.45,15.27
		c4.14,0,8.81-1.3,12.81-3.58l0.21-0.12l-2.49-4.88l-0.23,0.14c-3.1,1.8-7.05,2.92-10.31,2.94c-4.51,0-7.82-2.15-9.07-5.91
		l-0.25-0.74h22.86l0.04-0.2c0.2-0.95,0.31-1.94,0.31-2.93C138.87,27.4,132.29,20.56,124.2,20.56 M115.54,33.55l0.21-0.71
		c1.16-3.99,4.64-6.77,8.45-6.77c3.82,0,7.29,2.78,8.45,6.77l0.21,0.71H115.54z"/>
	<path class="st0" d="M163.77,20.56c-3.31,0-6.47,1.23-8.89,3.46l-0.94,0.86v-3.73h-5.79v29.34h5.79V34.93
		c0-4.89,3.85-8.87,8.58-8.87s8.58,3.98,8.58,8.87v15.55h5.79V33.69C176.91,26.45,171.02,20.56,163.77,20.56"/>
	<path class="st0" d="M205.32,44.44c-3.27,1.28-6.23,1.42-7.92,0.38c-1.16-0.71-1.72-2.02-1.72-4V26.66h9.19v-5.5h-9.19V13.1h-5.79
		v8.06h-5.52v5.5h5.52v14.73c0,3.64,1.44,6.46,4.17,8.16c3.31,2.07,8.32,2.08,12.98,0.02l0.21-0.09l-1.67-5.14L205.32,44.44z"/>
	<path class="st0" d="M228,20.56c-7.84,0-14.22,6.86-14.22,15.28c0,8.4,6.38,15.24,14.22,15.24c3.48,0,6.83-1.36,9.44-3.83l0.94-0.9
		v4.15h5.79V21.15h-5.79v4.14l-0.94-0.89C234.83,21.93,231.48,20.56,228,20.56 M238.5,35.83c0,5.37-4.24,9.75-9.46,9.75
		c-5.22,0-9.46-4.37-9.46-9.75c0-5.38,4.24-9.77,9.46-9.77C234.25,26.07,238.5,30.45,238.5,35.83"/>
	<path class="st0" d="M262.09,24.07l-0.92,0.78v-3.71h-5.79v29.34h5.79V36.91c0-3.98,1.73-6.39,3.17-7.71
		c2.01-1.82,4.73-2.7,7.44-2.44l0.28,0.03l0.01-6.23h-0.26C268.2,20.56,264.75,21.81,262.09,24.07"/>
	<path class="st0" d="M287.43,24.07l-0.92,0.78v-3.71h-5.79v29.34h5.79V36.91c0-3.99,1.73-6.39,3.17-7.71
		c2.01-1.82,4.73-2.71,7.44-2.44l0.28,0.03l0.01-6.23h-0.26C293.54,20.56,290.09,21.81,287.43,24.07"/>
	<path class="st0" d="M333.65,35.8c0-8.4-6.84-15.24-15.25-15.24c-8.41,0-15.25,6.84-15.25,15.24c0,8.43,6.84,15.28,15.25,15.28
		C326.81,51.08,333.65,44.23,333.65,35.8 M318.4,45.58c-5.22,0-9.46-4.38-9.46-9.77c0-5.37,4.24-9.74,9.46-9.74
		c5.22,0,9.46,4.37,9.46,9.74C327.86,41.2,323.61,45.58,318.4,45.58"/>
	<path class="st0" d="M97.63,22.98l0.15,0.2l4.63-3.51l-0.16-0.21c-3.99-5.18-10.05-8.15-16.61-8.15c-11.53,0-20.92,9.33-20.92,20.8
		c0,11.47,9.38,20.8,20.92,20.8c6.56,0,12.61-2.97,16.61-8.15l0.16-0.2l-4.63-3.51l-0.15,0.2c-2.9,3.79-7.26,5.96-11.98,5.96
		c-8.28,0-15.01-6.77-15.01-15.1c0-8.32,6.73-15.1,15.01-15.1C90.37,17.01,94.74,19.19,97.63,22.98"/>
	<polygon class="st0" points="5.94,10.16 3.68,0 0,0 0,13.99 11.34,25.02 13.19,14.88 	"/>
	<polygon class="st0" points="30.19,45.13 30.19,54.63 33.71,53.84 36.66,47.54 	"/>
	<polygon class="st0" points="25.13,53.84 28.64,54.63 28.64,45.13 22.18,47.54 	"/>
	<polygon class="st0" points="21.52,46.12 28.64,43.47 28.64,11.19 14.43,15.25 12.48,25.96 	"/>
	<polygon class="st0" points="45.65,14.88 47.5,25.02 58.84,13.99 58.84,0 55.16,0 52.9,10.16 	"/>
	<polygon class="st0" points="30.2,11.19 30.2,43.47 37.31,46.12 46.36,25.96 44.41,15.25 	"/>
</g>
</svg>
