<svg width="16" height="16" fill="currentColor" class="bi bi-stopwatch" viewBox="0 0 24 24" xmlns="http://www.w3.org/2000/svg">
  <path d="M 22.283 5.343 L 1.453 5.343 L 0.135 12.989 L 0.135 15.626 L 1.453 15.626 L 1.453 23.535 L 14.637 23.535 L 14.637 15.626 L 19.909 15.626 L 19.909 23.535 L 22.545 23.535 L 22.545 15.626 L 23.864 15.626 L 23.864 12.989 L 22.283 5.343 Z M 11.605 20.899 L 4.353 20.899 L 4.353 15.626 L 11.605 15.626 L 11.605 20.899 Z M 1.453 3.103 L 1.453 0.465 L 22.545 0.465 L 22.545 3.103 C 22.545 3.892 22.019 4.419 21.226 4.419 C 20.436 4.419 19.909 3.892 19.909 3.103 C 19.909 3.892 19.382 4.419 18.592 4.419 C 17.8 4.419 17.273 3.892 17.273 3.103 C 17.273 3.892 16.747 4.419 15.954 4.419 C 15.164 4.419 14.637 3.892 14.637 3.103 C 14.637 3.892 14.109 4.419 13.319 4.419 C 12.526 4.419 12 3.892 12 3.103 C 12 3.892 11.473 4.419 10.681 4.419 C 9.89 4.419 9.362 3.892 9.362 3.103 C 9.362 3.892 8.837 4.419 8.045 4.419 C 7.254 4.419 6.728 3.892 6.728 3.103 C 6.728 3.892 6.199 4.419 5.409 4.419 C 4.617 4.419 4.09 3.892 4.09 3.103 C 4.09 3.892 3.563 4.419 2.772 4.419 C 1.981 4.419 1.453 3.892 1.453 3.103 Z" style=""/>
</svg>
